<?xml version="1.0" standalone="no"?>
<!DOCTYPE svg PUBLIC "-//W3C//DTD SVG 20010904//EN"
 "http://www.w3.org/TR/2001/REC-SVG-20010904/DTD/svg10.dtd">
<svg version="1.0" xmlns="http://www.w3.org/2000/svg"
 width="300.000000pt" height="300.000000pt" viewBox="0 0 300.000000 300.000000"
 preserveAspectRatio="xMidYMid meet">
<metadata>
Created by potrace 1.14, written by Peter Selinger 2001-2017
</metadata>
<g transform="translate(0.000000,300.000000) scale(0.100000,-0.100000)"
fill="#000000" stroke="none">
<path d="M1456 2767 c-10 -18 -26 -45 -36 -62 -9 -16 -59 -102 -110 -190 -51
-88 -100 -173 -110 -190 -10 -16 -59 -102 -110 -190 -51 -88 -107 -185 -123
-215 -16 -30 -33 -59 -37 -65 -40 -52 -139 -239 -133 -250 7 -11 140 -160 182
-202 13 -14 26 6 276 442 12 22 68 119 124 216 l101 176 -2 281 c-3 281 -3
281 -22 249z"/>
<path d="M1536 2768 c4 -7 7 -38 7 -70 l0 -59 23 16 c13 8 24 11 24 5 0 -5 -5
-10 -11 -10 -5 0 -8 -4 -5 -9 3 -5 -2 -8 -11 -7 -26 2 -28 -33 -4 -50 12 -9
21 -22 21 -30 0 -8 4 -13 10 -9 5 3 7 12 4 19 -9 22 16 30 34 11 10 -10 13
-15 7 -12 -14 7 -38 -20 -25 -28 6 -3 10 -12 10 -18 0 -8 -3 -8 -9 1 -4 8 -12
12 -17 10 -5 -1 -15 9 -22 25 -7 15 -18 27 -24 27 -6 0 -5 -7 3 -17 8 -10 9
-14 2 -10 -6 4 -14 3 -18 -3 -3 -5 -1 -10 5 -10 7 0 9 -8 5 -19 -6 -21 10 -38
20 -21 3 5 12 10 18 10 7 0 3 -7 -7 -15 -10 -8 -22 -12 -27 -10 -4 3 -10 1
-14 -5 -3 -5 -1 -10 5 -10 6 0 9 -4 6 -9 -3 -5 1 -11 9 -15 8 -3 17 -1 20 4 4
6 1 10 -6 10 -7 0 -9 3 -6 6 4 4 13 2 20 -4 8 -7 17 -9 20 -5 4 3 7 1 7 -6 0
-7 -7 -11 -15 -8 -8 4 -17 2 -20 -3 -3 -5 -11 -7 -18 -4 -7 2 -13 -4 -14 -16
-1 -13 2 -18 10 -13 7 4 6 0 -2 -10 -17 -21 -8 -47 16 -47 17 1 16 2 -1 15
-21 16 -10 21 13 6 19 -12 3 -34 -21 -28 -12 4 -18 1 -15 -6 2 -7 11 -11 20
-11 9 1 14 -2 11 -7 -3 -5 0 -9 5 -9 6 0 11 -5 11 -11 0 -5 -10 -3 -22 5 -36
26 -46 18 -13 -10 22 -19 24 -23 8 -15 -19 10 -23 9 -23 -4 0 -9 4 -14 8 -11
4 2 14 0 22 -6 12 -8 12 -9 -2 -4 -10 3 -20 1 -23 -4 -8 -12 30 -72 40 -62 4
4 5 -1 2 -10 -3 -10 -2 -20 3 -23 5 -3 15 -18 23 -33 8 -15 28 -52 45 -82 90
-162 119 -209 125 -203 4 3 7 -2 7 -11 0 -25 32 -76 47 -76 7 0 13 -5 13 -11
0 -5 -4 -8 -9 -5 -5 4 -4 -5 2 -19 7 -14 16 -25 20 -25 5 0 5 5 1 12 -4 6 -3
8 3 5 6 -4 14 0 17 9 3 8 10 13 15 10 5 -4 12 -1 14 4 3 6 4 5 3 -2 -2 -7 -8
-12 -13 -11 -16 3 -39 -47 -26 -55 5 -4 13 -17 17 -29 4 -13 14 -30 23 -38 8
-9 16 -21 17 -28 2 -10 28 -58 79 -142 7 -11 13 -22 15 -24 4 -7 61 53 62 66
0 6 -6 13 -12 16 -7 2 -9 8 -5 13 4 5 12 2 17 -6 8 -13 11 -13 26 2 16 16 12
38 -8 38 -6 0 -6 -6 2 -15 11 -13 10 -14 -4 -9 -22 8 -20 21 5 35 12 6 19 7
15 1 -3 -5 1 -13 10 -16 12 -5 15 -2 11 13 -3 12 1 18 12 17 9 -1 15 6 15 16
-1 10 4 14 11 11 8 -2 19 5 25 17 9 17 8 26 -7 48 -10 15 -27 45 -38 66 -13
24 -29 40 -42 42 -17 3 -21 0 -16 -14 5 -13 3 -14 -7 -5 -15 14 -3 36 16 29 8
-3 14 -1 14 4 0 6 -5 10 -12 10 -6 0 -8 3 -5 6 8 8 -33 84 -45 84 -5 0 -6 5
-3 10 3 6 1 10 -4 10 -6 0 -11 7 -11 15 0 8 -7 15 -15 15 -8 0 -15 -5 -15 -11
0 -5 4 -8 9 -5 11 7 9 -21 -2 -29 -4 -3 -5 -2 -2 2 3 3 -1 13 -7 21 -10 11 -9
17 4 26 14 10 9 23 -39 106 -30 52 -57 97 -59 100 -3 2 -14 -1 -24 -8 -33 -20
-37 -13 -5 8 17 11 24 20 17 20 -7 0 -11 4 -8 9 3 5 -1 14 -9 21 -8 7 -15 18
-15 24 0 7 -9 22 -20 34 -11 12 -20 23 -19 24 6 9 -14 47 -22 43 -5 -4 -9 3
-9 14 0 12 -4 21 -8 21 -5 0 -17 7 -28 16 -18 14 -18 14 6 3 24 -12 25 -11 8
8 -10 11 -18 24 -18 30 0 6 -5 13 -11 15 -5 2 -11 10 -12 18 -5 29 -52 100
-67 100 -13 0 -13 1 0 10 13 8 13 10 -1 10 -9 0 -20 7 -23 16 -6 15 -4 15 10
3 10 -8 6 3 -9 28 -15 24 -27 46 -27 49 0 4 -8 13 -17 20 -10 7 -18 16 -18 21
-1 19 -38 82 -51 87 -10 4 -12 2 -8 -6z m44 -82 c0 -3 -4 -8 -10 -11 -5 -3
-10 -1 -10 4 0 6 5 11 10 11 6 0 10 -2 10 -4z m28 -50 c-7 -8 -15 -12 -17 -11
-5 6 10 25 20 25 5 0 4 -6 -3 -14z m30 -26 c7 -11 9 -20 4 -20 -4 0 -13 9 -20
20 -7 11 -9 20 -4 20 4 0 13 -9 20 -20z m-50 -7 c2 -7 -1 -13 -8 -13 -6 0 -9
4 -5 9 3 5 -3 12 -12 15 -15 4 -15 5 1 3 11 -1 21 -8 24 -14z m65 -67 c4 -10
1 -13 -9 -9 -7 3 -14 9 -14 14 0 14 17 10 23 -5z m37 -46 c0 7 3 10 7 7 3 -4
-2 -16 -11 -26 -10 -11 -15 -25 -11 -30 3 -6 1 -11 -4 -11 -15 0 -14 23 1 38
9 9 7 13 -5 18 -9 3 -17 11 -17 17 0 5 9 2 20 -8 14 -13 20 -14 20 -5z m-82
-4 c-7 -8 -15 -12 -17 -11 -5 6 10 25 20 25 5 0 4 -6 -3 -14z m44 -14 c-7 -2
-9 -8 -6 -14 3 -5 -3 -4 -15 3 -22 15 -9 31 18 21 10 -4 11 -7 3 -10z m63 -2
c-3 -5 -1 -10 4 -10 18 0 12 -24 -9 -38 -11 -7 -20 -8 -20 -3 0 5 7 12 16 15
8 3 12 11 8 17 -4 8 -9 7 -15 -2 -5 -8 -9 -9 -9 -3 0 5 5 15 12 22 15 15 21
16 13 2z m-104 -66 c-12 -15 -21 -22 -21 -16 0 6 5 14 10 17 6 4 7 11 4 17 -4
7 -2 8 4 4 7 -4 12 0 13 11 0 10 3 13 6 6 2 -7 -5 -25 -16 -39z m-30 -1 c-8
-15 -10 -15 -11 -2 0 17 10 32 18 25 2 -3 -1 -13 -7 -23z m80 5 c6 -13 8 -20
4 -16 -4 4 -14 0 -21 -10 -11 -14 -15 -15 -26 -3 -11 12 -10 13 6 7 14 -5 17
-2 12 9 -4 11 -2 14 6 9 8 -5 9 -2 5 9 -9 25 0 21 14 -5z m89 -13 c14 -18 13
-19 -1 -7 -14 10 -18 10 -23 -3 -3 -8 -11 -15 -18 -14 -10 0 -10 2 0 6 6 2 12
9 12 14 0 6 -5 7 -12 3 -7 -4 -8 -3 -4 5 4 6 12 9 17 6 5 -4 9 -1 9 6 0 7 1
10 3 8 1 -2 9 -13 17 -24z m-62 -20 c0 -29 -9 -37 -27 -26 -11 7 -10 13 5 29
11 11 20 21 20 21 1 1 2 -10 2 -24z m62 -15 c0 -5 -4 -10 -10 -10 -5 0 -10 5
-10 10 0 6 5 10 10 10 6 0 10 -4 10 -10z m-104 -25 c4 -8 11 -12 16 -9 6 4 5
-3 -1 -15 -14 -25 -23 -28 -14 -4 4 11 3 14 -5 9 -8 -5 -10 -2 -6 9 5 11 2 14
-12 8 -12 -4 -15 -3 -10 5 10 16 26 15 32 -3z m82 -1 c6 -11 11 -13 16 -5 9
14 26 14 26 0 0 -5 -4 -8 -9 -4 -6 3 -14 -3 -20 -12 -6 -11 -11 -13 -11 -5 0
7 -4 11 -9 7 -5 -3 -12 -1 -16 5 -4 6 -12 7 -18 3 -7 -4 -6 0 2 10 17 21 28
21 39 1z m-98 -52 c0 -6 6 -13 13 -15 9 -4 9 -6 -1 -6 -8 -1 -16 8 -19 19 -3
11 -10 17 -16 13 -5 -3 -7 -1 -3 5 3 6 2 13 -4 17 -5 3 -10 11 -10 17 0 6 9
-1 20 -15 11 -14 20 -30 20 -35z m150 13 c-7 -8 -20 -14 -29 -14 -12 1 -11 2
3 6 15 4 16 7 5 15 -11 8 -10 9 4 4 11 -4 17 0 18 12 0 11 2 12 6 4 3 -7 -1
-19 -7 -27z m-59 -12 c2 1 1 -2 -4 -8 -5 -6 -11 -4 -17 5 -15 23 -11 37 4 18
7 -10 15 -17 17 -15z m-47 -8 c-4 -8 -8 -15 -10 -15 -2 0 -4 7 -4 15 0 8 4 15
10 15 5 0 7 -7 4 -15z m146 1 c-7 -7 -14 -6 -21 1 -9 9 -7 12 9 10 14 -1 18
-5 12 -11z m-210 -6 c0 -5 -4 -10 -10 -10 -5 0 -10 5 -10 10 0 6 5 10 10 10 6
0 10 -4 10 -10z m115 -40 c7 0 19 -8 26 -17 7 -10 9 -15 5 -11 -5 4 -15 0 -21
-9 -11 -14 -10 -20 4 -30 15 -11 14 -13 -3 -30 -10 -10 -16 -13 -12 -6 3 6 2
14 -4 18 -6 4 -8 11 -5 16 4 5 1 9 -4 9 -6 0 -1 10 11 22 l21 21 -21 8 c-11 4
-26 18 -32 31 l-11 23 17 -22 c9 -13 22 -23 29 -23z m25 36 c0 -2 -6 -9 -14
-15 -11 -9 -16 -9 -22 0 -4 8 -3 9 4 5 7 -4 12 -2 12 3 0 6 5 11 10 11 6 0 10
-2 10 -4z m40 -7 c0 -5 5 -7 12 -3 7 4 8 3 4 -5 -6 -9 -11 -9 -22 0 -17 14
-18 19 -4 19 6 0 10 -5 10 -11z m42 -11 c-3 -13 -1 -19 5 -15 6 4 17 -1 24
-11 13 -15 12 -16 -4 -3 -16 12 -17 11 -13 -10 3 -13 5 -26 5 -29 1 -3 6 2 11
10 5 8 10 10 10 4 0 -6 -8 -18 -17 -25 -11 -10 -14 -10 -9 -1 4 7 2 12 -4 12
-7 0 -10 6 -7 13 2 6 0 20 -5 30 -5 10 -7 25 -4 33 8 22 15 16 8 -8z m-217
-27 c-6 -5 -25 10 -25 20 0 5 6 4 14 -3 8 -7 12 -15 11 -17z m34 19 c-6 -5
-18 -6 -26 -3 -19 8 -16 11 13 11 17 0 22 -3 13 -8z m37 -32 c3 -22 1 -28 -5
-19 -5 8 -6 21 -3 30 5 14 3 14 -11 2 -20 -16 -23 -6 -4 13 15 18 19 14 23
-26z m84 32 c0 -5 -4 -10 -10 -10 -5 0 -10 5 -10 10 0 6 5 10 10 10 6 0 10 -4
10 -10z m-176 -28 c3 -5 -1 -9 -9 -9 -8 0 -13 3 -10 5 3 3 -3 11 -13 19 -15
13 -15 13 5 3 12 -5 24 -14 27 -18z m206 8 c-20 -13 -33 -13 -25 0 3 6 14 10
23 10 15 0 15 -2 2 -10z m-158 -39 c-5 -14 -3 -14 11 -2 11 9 17 10 17 2 0 -6
-5 -11 -11 -11 -5 0 -7 -6 -3 -12 6 -10 4 -10 -8 0 -8 7 -15 24 -15 38 0 17 2
22 7 13 5 -6 5 -19 2 -28z m-31 6 c-10 -9 -11 -8 -5 6 3 10 9 15 12 12 3 -3 0
-11 -7 -18z m109 19 c0 -3 -4 -8 -10 -11 -5 -3 -10 -1 -10 4 0 6 5 11 10 11 6
0 10 -2 10 -4z m98 -8 c-2 -6 -10 -13 -16 -14 -7 -1 -8 0 -2 3 5 2 8 9 4 14
-3 5 0 9 6 9 7 0 10 -5 8 -12z m-48 -43 c0 -5 -5 -3 -10 5 -5 8 -10 20 -10 25
0 6 5 3 10 -5 5 -8 10 -19 10 -25z m-133 -5 c14 -11 22 -20 17 -20 -12 1 -61
39 -51 40 5 0 20 -9 34 -20z m50 13 c-4 -3 1 -12 11 -19 19 -15 5 -19 -17 -5
-12 8 -8 31 6 31 4 0 3 -3 0 -7z m139 -2 c-4 -5 -1 -12 4 -14 6 -3 5 -4 -2 -3
-15 3 -23 26 -8 26 6 0 9 -4 6 -9z m64 -5 c0 -21 -20 -30 -33 -16 -9 10 -8 12
7 6 14 -5 17 -2 12 9 -3 8 -1 15 4 15 6 0 10 -6 10 -14z m-107 -24 c-8 -5 -9
-13 -3 -22 7 -12 11 -10 19 10 9 24 10 24 10 3 1 -13 -4 -23 -10 -23 -5 0 -7
-6 -4 -12 4 -7 -2 -3 -13 10 -25 27 -36 29 -22 3 15 -30 11 -40 -5 -11 -13 23
-12 27 8 42 12 9 24 14 27 12 2 -3 -1 -8 -7 -12z m-93 -23 c0 -5 -8 -9 -17 -8
-11 0 -13 3 -5 6 6 2 9 10 6 15 -4 7 -2 8 4 4 7 -4 12 -11 12 -17z m149 9 c4
7 11 4 19 -8 7 -12 8 -20 2 -20 -5 0 -10 5 -10 10 0 6 -5 9 -11 8 -6 -2 -13 3
-14 10 -2 8 -1 8 2 1 4 -8 7 -8 12 -1z m-112 -15 c-4 -3 1 -12 11 -19 14 -11
15 -15 3 -26 -12 -11 -13 -10 -8 5 4 11 2 17 -6 16 -33 -4 -41 1 -21 16 20 15
32 20 21 8z m207 -2 c4 -5 -4 -7 -16 -4 -22 4 -22 4 -4 -11 10 -8 23 -13 29
-9 6 3 7 1 3 -5 -4 -7 -2 -12 5 -12 7 0 10 -2 7 -5 -6 -7 -58 18 -58 28 0 5
-6 5 -12 1 -9 -5 -9 -2 1 9 15 19 37 22 45 8z m-251 -31 c6 0 18 -7 28 -16 14
-13 16 -20 7 -40 -6 -13 -15 -24 -20 -24 -5 0 -1 11 7 24 10 14 12 27 6 30 -5
3 -11 1 -13 -6 -3 -8 -9 -8 -24 1 -14 10 -15 11 -2 7 10 -3 20 -1 23 3 2 5 -4
11 -15 14 -11 3 -20 11 -19 19 0 10 2 10 6 1 2 -7 10 -13 16 -13z m147 10 c0
-5 6 -8 13 -6 6 1 9 1 4 -1 -4 -3 -4 -9 -1 -15 3 -5 -3 -4 -15 4 -22 14 -28
28 -11 28 6 0 10 -4 10 -10z m-48 -32 c-10 -10 -7 -15 10 -25 16 -9 18 -12 7
-13 -9 0 -24 10 -35 22 -10 12 -14 18 -8 15 7 -4 15 0 18 9 4 9 9 14 13 10 4
-3 1 -12 -5 -18z m108 11 c0 -5 -4 -7 -10 -4 -5 3 -10 1 -10 -6 0 -7 -3 -10
-6 -6 -8 7 4 27 17 27 5 0 9 -5 9 -11z m-68 -13 c7 4 8 2 4 -4 -11 -18 -26
-14 -25 6 0 10 3 12 6 4 2 -6 10 -9 15 -6z m146 -24 c-5 -2 -20 3 -33 12 -17
11 -25 13 -25 5 0 -7 -3 -10 -6 -6 -3 3 -3 10 0 15 3 6 20 3 40 -7 18 -9 29
-18 24 -19z m-125 1 c-6 -16 -5 -16 10 -4 11 9 17 10 17 2 0 -10 -13 -15 -32
-12 -5 0 -8 -6 -8 -14 0 -8 5 -14 12 -12 6 1 14 -6 16 -15 2 -10 -1 -18 -7
-18 -6 0 -7 7 -4 17 4 11 3 14 -5 9 -17 -11 -26 19 -12 43 13 25 22 28 13 4z
m-102 -20 c-8 -15 -10 -15 -11 -2 0 17 10 32 18 25 2 -3 -1 -13 -7 -23z m189
7 c0 -5 -7 -7 -15 -4 -8 4 -15 8 -15 10 0 2 7 4 15 4 8 0 15 -4 15 -10z m-168
-22 c-7 -7 -12 -8 -12 -2 0 6 3 14 7 17 3 4 9 5 12 2 2 -3 -1 -11 -7 -17z
m146 8 c-2 -1 -12 -8 -22 -16 -13 -10 -17 -10 -12 -2 4 7 2 12 -6 12 -10 0
-10 2 1 9 8 5 20 7 28 4 8 -3 13 -6 11 -7z m38 -12 c-4 -9 -9 -15 -11 -12 -3
3 -3 13 1 22 4 9 9 15 11 12 3 -3 3 -13 -1 -22z m27 0 c-17 -26 -17 -27 7 -20
21 6 22 5 7 -4 -9 -6 -21 -9 -26 -5 -5 3 -12 1 -16 -5 -3 -5 1 -10 9 -10 16 0
56 -51 56 -72 0 -7 -8 2 -16 19 -17 34 -69 68 -80 52 -3 -5 0 -9 5 -9 6 0 11
-5 11 -12 0 -6 -9 -3 -20 7 -11 10 -19 25 -19 34 1 13 2 13 6 -2 2 -9 8 -15
13 -12 5 3 6 13 3 23 -4 13 -2 13 10 -3 15 -19 16 -19 34 13 10 17 21 32 26
32 4 0 0 -12 -10 -26z m-167 4 c4 -7 3 -8 -4 -4 -7 4 -12 2 -12 -3 0 -6 -5
-11 -11 -11 -8 0 -8 5 1 15 15 18 17 18 26 3z m-55 -23 c19 -8 29 -14 23 -15
-7 0 -27 7 -45 15 -19 8 -29 14 -23 15 7 0 27 -7 45 -15z m64 -5 c-3 -5 -1
-10 4 -10 6 0 11 -5 11 -10 0 -6 -8 -5 -19 2 -19 12 -19 28 0 28 6 0 7 -4 4
-10z m199 -15 c-7 -16 -24 -21 -24 -6 0 8 7 13 27 20 1 1 0 -6 -3 -14z m-269
-5 c4 -6 12 -7 18 -4 7 4 8 3 4 -1 -10 -12 -39 -16 -32 -5 3 5 -1 11 -7 13 -9
4 -10 6 -1 6 6 1 15 -4 18 -9z m128 -7 c-4 -11 -3 -14 5 -9 8 5 10 2 6 -9 -5
-11 -2 -14 12 -9 16 6 17 5 6 -7 -11 -12 -15 -11 -26 3 -7 10 -17 14 -21 10
-4 -4 -2 3 4 16 14 26 23 30 14 5z m-73 -8 c5 3 12 0 16 -6 4 -8 3 -9 -4 -5
-7 4 -12 3 -12 -3 0 -5 6 -12 13 -14 9 -4 9 -6 -1 -6 -7 -1 -15 6 -19 14 -5
14 -7 14 -23 0 -14 -12 -20 -13 -26 -4 -4 8 -3 10 4 5 6 -4 17 2 24 14 7 11
14 16 16 10 2 -6 8 -8 12 -5z m47 -54 c-10 -7 -21 -10 -24 -7 -4 3 -1 6 5 6 6
0 9 11 6 25 -4 24 -4 25 14 8 17 -17 17 -18 -1 -32z m119 37 c4 -7 3 -8 -4 -4
-7 4 -12 2 -12 -3 0 -6 -5 -11 -11 -11 -8 0 -8 5 1 15 15 18 17 18 26 3z
m-166 -29 c11 -8 9 -9 -10 -3 -22 6 -23 5 -11 -10 7 -9 9 -16 3 -16 -12 0 -23
26 -15 34 9 8 16 7 33 -5z m132 -7 c-7 -2 -9 -8 -6 -14 3 -5 -3 -4 -15 3 -22
15 -9 31 18 21 10 -4 11 -7 3 -10z m52 2 c4 -9 4 -19 1 -22 -2 -3 -7 3 -11 12
-3 9 -11 13 -17 9 -6 -3 -7 -1 -3 5 10 17 23 15 30 -4z m-98 -19 c4 -8 10 -12
16 -9 5 3 4 -3 -3 -15 -14 -22 -32 -9 -22 16 4 9 0 11 -13 6 -12 -4 -15 -3
-10 5 10 16 26 15 32 -3z m164 5 c0 -5 -5 -10 -11 -10 -6 0 -25 -10 -41 -22
-29 -20 -32 -20 -43 -4 -8 11 -15 13 -20 7 -3 -6 -10 -11 -16 -11 -5 0 -1 8 9
18 11 12 20 14 24 8 4 -6 8 -7 8 -2 0 5 6 4 13 -2 9 -8 21 -6 42 8 35 23 35
23 35 10z m10 -25 c-7 -8 -19 -15 -27 -15 -8 0 -11 -5 -7 -12 4 -7 4 -10 -1
-6 -4 4 -16 3 -27 -3 -11 -6 -22 -9 -24 -7 -2 3 16 15 41 27 25 12 45 27 45
33 0 6 3 8 6 5 4 -4 1 -13 -6 -22z m-220 0 c10 6 31 -18 35 -42 2 -10 4 -19 4
-20 1 -2 1 -6 0 -9 0 -4 4 -10 10 -13 6 -4 1 -12 -12 -20 -17 -10 -19 -10 -10
-1 10 11 9 16 -4 26 -13 9 -15 15 -6 26 8 9 9 19 3 28 -6 8 -10 12 -10 8 0
-20 -2 -24 -16 -31 -9 -5 -18 -6 -21 -3 -4 3 -1 6 6 6 7 0 9 5 6 10 -3 6 -1
10 6 10 10 0 10 3 1 12 -7 7 -12 17 -11 23 0 5 3 4 6 -3 2 -6 8 -10 13 -7z
m243 -10 c-3 -9 -8 -14 -10 -11 -3 3 -2 9 2 15 9 16 15 13 8 -4z m12 -34 c-3
-12 -11 -18 -17 -15 -8 5 -9 -1 -4 -17 14 -50 15 -62 5 -78 -8 -12 -8 -10 -3
9 6 22 5 23 -10 11 -9 -7 -16 -9 -16 -3 0 5 7 12 15 16 12 4 13 10 3 32 -10
22 -10 28 5 39 9 7 17 18 17 25 0 7 3 11 6 7 3 -3 3 -15 -1 -26z m-156 9 c-6
-5 -18 -6 -26 -3 -19 8 -16 11 13 11 17 0 22 -3 13 -8z m121 0 c0 -5 -4 -10
-10 -10 -5 0 -10 5 -10 10 0 6 5 10 10 10 6 0 10 -4 10 -10z m-140 -20 c9 -6
11 -12 5 -17 -6 -5 -9 -6 -8 -4 2 2 -5 10 -15 17 -19 15 -5 19 18 4z m56 -18
c12 -25 26 -19 17 6 -5 14 -3 15 7 5 10 -9 10 -15 2 -26 -7 -8 -8 -18 -4 -23
4 -4 -1 -2 -10 5 -10 7 -18 19 -18 27 0 7 -8 18 -17 24 -12 8 -13 10 -3 7 8
-2 20 -13 26 -25z m64 18 c13 -8 13 -10 -2 -10 -9 0 -20 5 -23 10 -8 13 5 13
25 0z m-91 -36 c-6 -8 -15 -12 -18 -8 -3 4 0 9 7 11 6 3 9 10 6 15 -4 7 -2 8
5 4 9 -6 9 -11 0 -22z m91 -4 c-20 -13 -33 -13 -25 0 3 6 14 10 23 10 15 0 15
-2 2 -10z m109 -36 c-6 -8 -17 -14 -25 -14 -7 0 -18 -8 -24 -17 -8 -12 -10
-13 -7 -3 2 8 13 20 25 26 25 12 19 26 -6 17 -12 -4 -11 -1 3 10 25 19 53 3
34 -19z m-175 18 c7 -12 -12 -38 -21 -28 -4 5 -2 11 6 14 11 4 11 6 0 13 -9 6
-10 9 -2 9 6 0 14 -4 17 -8z m74 -6 c-7 -8 -15 -12 -17 -11 -5 6 10 25 20 25
5 0 4 -6 -3 -14z m-116 -8 c-11 -15 10 -42 24 -30 5 4 2 -1 -5 -10 -16 -22
-20 -22 -46 -2 -20 15 -20 15 5 34 29 23 37 25 22 8z m98 -28 c0 -6 -5 -10
-11 -10 -5 0 -7 5 -3 11 4 8 -1 9 -17 5 -13 -3 -18 -3 -11 0 6 3 9 10 6 16 -4
6 2 5 15 -1 11 -7 21 -16 21 -21z m140 -11 c0 -6 -4 -7 -10 -4 -5 3 -10 11
-10 16 0 6 5 7 10 4 6 -3 10 -11 10 -16z m-88 -23 c3 2 5 -5 4 -16 0 -11 -4
-20 -8 -20 -5 0 -12 0 -18 0 -5 0 -10 5 -10 11 0 8 5 8 15 -1 19 -16 19 -1 0
24 -14 19 -15 18 -24 -5 -10 -24 -10 -24 -10 -1 -1 12 4 22 10 22 5 0 7 6 4
13 -4 6 2 2 13 -10 11 -12 22 -20 24 -17z m62 5 c-4 -3 -9 0 -11 7 -3 6 -10 9
-15 6 -7 -4 -8 -2 -4 5 6 9 11 9 22 0 8 -6 12 -15 8 -18z m-138 5 c10 -8 16
-18 11 -22 -4 -4 -7 -2 -7 4 0 7 -6 12 -14 12 -8 0 -18 5 -21 10 -9 15 8 12
31 -4z m-37 -9 c-28 -21 -59 -36 -59 -29 0 9 37 30 54 31 5 1 7 0 5 -2z m146
-6 c-3 -6 3 -14 12 -20 11 -6 13 -11 5 -11 -7 0 -11 -4 -7 -9 3 -5 1 -12 -5
-16 -6 -4 -8 -10 -5 -15 3 -5 0 -12 -7 -16 -7 -4 -10 -4 -6 1 4 4 2 15 -4 23
-10 11 -9 17 5 27 12 8 14 15 8 20 -14 8 -14 25 0 25 5 0 8 -4 4 -9z m63 -2
c-10 -5 -15 -16 -12 -24 4 -8 2 -15 -3 -15 -5 0 -10 8 -10 18 0 17 14 32 32
32 6 -1 2 -5 -7 -11z m-192 -21 c5 -8 2 -9 -10 -5 -14 6 -17 3 -12 -8 4 -11 2
-14 -6 -9 -8 5 -9 2 -5 -9 9 -24 0 -21 -14 4 -6 12 -7 19 -1 15 5 -3 12 1 16
9 6 18 22 19 32 3z m219 2 c3 -6 -1 -7 -9 -4 -18 7 -21 14 -7 14 6 0 13 -4 16
-10z m-153 -28 c-7 -2 -9 -8 -6 -14 3 -5 -3 -4 -15 3 -22 15 -9 31 18 21 10
-4 11 -7 3 -10z m-57 -2 c-3 -5 -1 -10 4 -10 6 0 11 -8 11 -17 0 -15 -2 -14
-16 3 -15 19 -15 19 -9 -2 3 -13 -1 -26 -12 -35 -11 -9 -14 -10 -9 -1 4 6 2
12 -3 12 -6 0 -11 5 -11 11 0 8 6 7 17 -2 15 -12 16 -12 10 5 -4 10 -2 25 4
32 13 16 23 19 14 4z m78 -15 c-3 -9 -8 -14 -10 -11 -3 3 -2 9 2 15 9 16 15
13 8 -4z m82 5 c-3 -5 -11 -10 -16 -10 -6 0 -7 5 -4 10 3 6 11 10 16 10 6 0 7
-4 4 -10z m-120 -30 c-3 -5 -1 -11 5 -15 6 -4 8 -11 5 -16 -4 -5 -1 -9 6 -9 7
0 4 -7 -7 -16 -19 -15 -19 -16 1 -10 17 5 16 3 -5 -13 -14 -11 -27 -17 -30
-15 -2 3 2 9 10 14 8 6 11 10 6 10 -6 0 -5 5 2 12 9 9 7 14 -5 24 -14 9 -15
15 -5 26 6 8 8 19 4 23 -4 5 -1 5 6 1 7 -4 10 -11 7 -16z m46 -13 c-8 -8 -14
-7 -23 2 -11 11 -10 13 5 8 12 -4 17 -1 18 11 0 12 2 13 6 4 3 -8 0 -19 -6
-25z m-88 -22 c-3 -9 -8 -14 -10 -11 -3 3 -2 9 2 15 9 16 15 13 8 -4z m8 -32
c-12 -20 -14 -14 -5 12 4 9 9 14 11 11 3 -2 0 -13 -6 -23z m62 -30 c-7 -3 -13
-11 -13 -18 0 -8 -4 -17 -10 -20 -6 -4 -7 1 -3 11 5 13 3 15 -8 10 -8 -4 -3 1
11 12 14 12 27 18 30 15 3 -3 -1 -8 -7 -10z"/>
<path d="M1705 2330 c3 -5 8 -10 11 -10 2 0 4 5 4 10 0 6 -5 10 -11 10 -5 0
-7 -4 -4 -10z"/>
<path d="M1725 2150 c3 -5 8 -10 11 -10 2 0 4 5 4 10 0 6 -5 10 -11 10 -5 0
-7 -4 -4 -10z"/>
<path d="M1960 1830 c0 -5 5 -10 11 -10 5 0 7 5 4 10 -3 6 -8 10 -11 10 -2 0
-4 -4 -4 -10z"/>
<path d="M1860 1770 c0 -5 5 -10 11 -10 5 0 7 5 4 10 -3 6 -8 10 -11 10 -2 0
-4 -4 -4 -10z"/>
<path d="M1910 1675 c7 -8 17 -15 22 -15 6 0 5 7 -2 15 -7 8 -17 15 -22 15 -6
0 -5 -7 2 -15z"/>
<path d="M2100 1589 c0 -5 5 -7 10 -4 6 3 10 8 10 11 0 2 -4 4 -10 4 -5 0 -10
-5 -10 -11z"/>
<path d="M2020 1530 c0 -5 5 -10 11 -10 5 0 7 5 4 10 -3 6 -8 10 -11 10 -2 0
-4 -4 -4 -10z"/>
<path d="M1600 2569 c0 -5 5 -7 10 -4 6 3 10 8 10 11 0 2 -4 4 -10 4 -5 0 -10
-5 -10 -11z"/>
<path d="M2310 1278 c-36 -39 -80 -86 -97 -105 -18 -19 -33 -37 -33 -40 0 -7
45 -87 130 -233 77 -133 97 -168 131 -227 75 -134 83 -143 149 -180 144 -80
207 -117 335 -191 39 -23 71 -37 73 -33 2 5 -11 33 -29 62 -17 30 -40 69 -50
87 -11 17 -27 47 -38 65 -10 17 -54 93 -96 167 -84 145 -85 147 -255 440 -62
107 -119 207 -127 222 -8 15 -17 30 -21 32 -4 2 -36 -27 -72 -66z"/>
<path d="M650 1319 c21 -17 22 -19 3 -10 -29 15 -33 14 -26 -6 4 -9 2 -14 -3
-10 -6 3 -15 -3 -22 -14 -10 -16 -9 -19 4 -19 9 0 12 5 8 12 -4 6 -3 8 4 4 6
-3 13 -2 17 4 3 5 11 10 17 10 6 0 -1 -9 -15 -20 -14 -11 -31 -20 -39 -20 -20
0 -139 -213 -124 -222 19 -13 29 -9 16 7 -9 10 -9 15 -1 15 6 0 11 -5 11 -11
0 -5 6 -7 13 -3 8 5 8 3 -2 -9 -9 -11 -21 -15 -38 -11 -20 5 -26 1 -36 -25 -6
-17 -15 -31 -19 -31 -4 0 -8 -5 -8 -11 0 -5 6 -7 13 -4 6 4 4 0 -5 -8 -10 -8
-15 -17 -11 -20 3 -4 -2 -7 -12 -7 -14 0 -16 -3 -7 -12 8 -8 15 -8 28 3 14 11
18 11 28 -4 10 -13 15 -14 26 -4 9 9 9 7 -1 -10 -8 -13 -16 -18 -20 -12 -3 6
-9 10 -13 10 -3 -1 -7 -1 -8 0 -24 6 -58 5 -58 -2 0 -5 0 -11 0 -14 0 -3 -9
-15 -20 -27 -11 -12 -20 -27 -20 -34 0 -6 -7 -17 -15 -24 -9 -7 -13 -15 -10
-18 3 -3 -2 -14 -11 -23 -16 -17 -16 -19 0 -25 9 -3 16 -11 16 -17 0 -7 -4 -7
-12 1 -19 19 -27 15 -43 -20 -8 -18 -26 -51 -40 -73 -13 -22 -30 -51 -37 -65
-7 -14 -15 -27 -19 -30 -3 -3 -17 -25 -31 -50 -72 -128 -100 -176 -109 -185
-12 -12 -11 -25 2 -25 5 0 7 5 4 10 -6 9 8 15 29 11 5 -1 3 5 -4 14 -11 13
-10 15 3 9 18 -6 87 23 87 38 0 5 5 6 10 3 6 -3 10 -3 10 2 0 4 14 14 30 21
17 8 27 18 23 25 -4 6 0 8 10 4 10 -3 17 -2 17 4 0 6 5 7 12 3 7 -4 8 -3 4 4
-4 6 -12 10 -19 8 -7 -1 -9 -1 -4 1 4 3 4 9 1 15 -3 5 3 4 14 -3 17 -11 27 -9
66 11 26 13 44 25 41 28 -2 3 -13 -1 -22 -9 -16 -13 -17 -12 -4 4 7 9 24 17
36 17 29 0 77 38 68 53 -5 8 -2 8 9 -1 12 -10 19 -8 39 10 26 25 59 73 59 85
0 4 -7 -1 -15 -11 -19 -25 -19 -16 0 20 8 16 15 23 15 16 0 -7 5 -10 10 -7 6
4 8 11 5 16 -4 5 -1 9 5 9 6 0 8 5 5 10 -4 7 -12 7 -25 0 -22 -12 -53 -3 -43
13 4 6 0 8 -10 4 -10 -3 -17 -2 -17 3 0 16 30 11 36 -5 6 -15 25 -21 23 -7 -3
19 2 32 12 32 8 0 8 -4 0 -14 -9 -11 -6 -13 14 -13 14 -1 28 4 32 10 4 6 1 7
-8 2 -8 -5 -2 4 14 20 21 22 25 31 15 42 -9 11 -8 13 2 11 9 -2 15 6 15 22 1
14 9 37 18 50 22 31 22 17 1 -16 -9 -13 -14 -27 -12 -30 3 -2 21 22 41 55 20
33 32 63 27 66 -4 3 -11 0 -13 -5 -3 -6 -4 -5 -3 2 2 7 12 11 22 10 10 -2 16
-1 12 3 -4 4 2 16 12 28 15 15 17 24 8 34 -8 10 -7 12 5 8 17 -7 33 10 17 20
-5 3 -10 12 -10 18 0 8 4 7 9 -2 7 -11 16 -3 40 34 17 27 31 55 31 61 0 17
-50 70 -62 66 -5 -1 -7 1 -4 6 6 10 -38 52 -54 52 -6 0 -10 5 -10 11 0 5 6 7
13 3 6 -4 -6 12 -28 35 -21 22 -44 41 -50 41 -5 0 1 -10 15 -21z m40 -44 c0
-8 -2 -15 -4 -15 -2 0 -6 7 -10 15 -3 8 -1 15 4 15 6 0 10 -7 10 -15z m-14
-19 c11 -11 11 -16 1 -20 -6 -4 -1 -4 12 -2 18 4 21 2 13 -6 -9 -9 -18 -8 -37
0 -33 15 -42 15 -27 0 7 -7 12 -16 12 -20 0 -4 -8 0 -18 10 -21 20 -8 35 23
25 17 -5 18 -4 6 11 -17 20 -5 21 15 2z m-70 -41 c4 -8 11 -12 16 -9 6 4 5 -3
-1 -15 -7 -11 -16 -21 -22 -21 -6 0 -7 -4 -4 -10 3 -5 1 -10 -5 -10 -7 0 -9 7
-6 16 3 9 6 18 6 20 0 3 5 2 10 -1 11 -7 12 -3 4 19 -3 8 -12 12 -21 9 -11 -4
-14 -2 -9 5 10 16 26 15 32 -3z m128 -1 c9 -3 16 -14 16 -23 -1 -14 -2 -14
-11 2 -6 9 -14 15 -20 12 -5 -4 -9 -1 -9 4 0 13 3 13 24 5z m-68 -30 c-4 -9
-9 -15 -11 -12 -3 3 -3 13 1 22 4 9 9 15 11 12 3 -3 3 -13 -1 -22z m29 16 c-3
-5 -1 -10 4 -10 6 0 11 -5 11 -11 0 -8 -5 -8 -15 1 -13 11 -12 30 1 30 3 0 2
-4 -1 -10z m82 -45 c-4 -8 -12 -15 -19 -14 -10 0 -10 2 0 6 6 2 12 12 12 21 0
8 3 13 6 9 4 -3 4 -13 1 -22z m-115 -5 c18 -11 27 -20 20 -20 -8 0 -25 9 -39
20 -33 26 -23 26 19 0z m33 10 c3 -5 2 -10 -4 -10 -5 0 -13 5 -16 10 -3 6 -2
10 4 10 5 0 13 -4 16 -10z m45 -5 c0 -8 -2 -15 -4 -15 -2 0 -6 7 -10 15 -3 8
-1 15 4 15 6 0 10 -7 10 -15z m70 1 c0 -3 -4 -8 -10 -11 -5 -3 -10 -1 -10 4 0
6 5 11 10 11 6 0 10 -2 10 -4z m-260 -21 c11 -13 10 -14 -4 -9 -9 3 -16 10
-16 15 0 13 6 11 20 -6z m86 1 c15 -16 18 -26 6 -26 -4 0 -13 9 -20 20 -14 23
-7 26 14 6z m106 -26 c4 0 8 -6 8 -12 -1 -7 -10 -2 -20 11 -11 13 -20 17 -20
10 0 -7 7 -21 17 -31 9 -10 12 -18 7 -18 -17 0 -35 41 -28 63 l7 22 10 -22 c6
-13 14 -23 19 -23z m-151 10 c6 0 7 5 3 12 -4 7 -3 8 5 4 6 -4 9 -12 6 -17 -4
-5 0 -9 7 -9 8 0 7 -4 -4 -11 -9 -5 -16 -15 -14 -22 1 -6 1 -9 -1 -4 -3 4 -10
4 -16 0 -7 -3 -4 3 6 14 16 18 16 21 2 26 -8 4 -15 12 -14 19 0 10 2 10 6 1 2
-7 9 -13 14 -13z m188 0 c-6 -5 -18 -6 -26 -3 -19 8 -16 11 13 11 17 0 22 -3
13 -8z m-247 -7 c-6 -2 -9 -10 -6 -15 4 -7 2 -8 -5 -4 -13 9 -5 26 12 25 9 0
8 -2 -1 -6z m154 -5 c4 -7 3 -8 -4 -4 -7 4 -12 2 -12 -3 0 -6 -5 -11 -11 -11
-8 0 -8 5 1 15 15 18 17 18 26 3z m126 5 c-6 -2 -10 -9 -7 -14 4 -5 -1 -6 -10
-2 -13 5 -14 7 -3 14 7 5 18 8 23 8 6 0 4 -3 -3 -6z m-242 -14 c0 -5 -4 -7
-10 -4 -5 3 -10 3 -10 -2 0 -4 -7 -17 -16 -28 -13 -17 -16 -18 -24 -5 -13 20
-12 39 1 20 8 -13 12 -12 26 8 16 23 33 29 33 11z m62 -35 c-9 -7 -19 -10 -22
-7 -3 3 1 8 8 10 6 3 12 12 12 21 0 14 2 15 9 3 7 -10 4 -19 -7 -27z m128 -1
c-11 -17 -11 -17 -6 0 3 10 6 24 7 30 0 9 2 9 5 0 3 -7 0 -20 -6 -30z m-54 15
c4 -6 3 -8 -4 -4 -5 3 -13 0 -15 -6 -3 -8 -6 -6 -6 5 -1 19 14 23 25 5z m82
-18 c-7 -11 -14 -17 -17 -15 -2 3 1 11 7 18 7 8 8 18 4 22 -4 5 -1 5 5 1 10
-5 10 -11 1 -26z m-198 -20 c0 -6 -5 -10 -11 -10 -5 0 -7 5 -3 11 4 8 -1 9
-17 5 -13 -3 -18 -3 -11 0 6 3 9 10 6 16 -4 6 2 5 15 -1 11 -7 21 -16 21 -21z
m67 8 c-15 -8 -16 -12 -6 -24 9 -11 9 -18 1 -26 -12 -12 -32 -3 -32 15 0 7 4
6 10 -3 5 -8 12 -11 16 -7 4 3 1 14 -6 22 -11 13 -10 18 6 29 10 8 21 12 24 9
3 -2 -3 -9 -13 -15z m80 -8 c3 -10 2 -11 -4 -4 -4 6 -15 14 -23 17 -11 5 -9 6
4 4 11 -1 21 -9 23 -17z m-29 -4 c-2 -1 -12 -8 -22 -16 -13 -10 -17 -10 -12
-2 4 7 2 12 -6 12 -10 0 -10 2 1 9 8 5 20 7 28 4 8 -3 13 -6 11 -7z m-142 -20
c10 -8 16 -18 11 -22 -4 -4 -7 -2 -7 4 0 7 -6 12 -14 12 -8 0 -18 5 -21 10 -9
15 8 12 31 -4z m37 -16 c-3 -11 -7 -20 -9 -20 -2 0 -4 9 -4 20 0 11 4 20 9 20
5 0 7 -9 4 -20z m137 16 c0 -2 -7 -6 -15 -10 -8 -3 -15 -1 -15 4 0 6 7 10 15
10 8 0 15 -2 15 -4z m-242 -17 c11 6 24 11 29 11 4 -1 -4 -8 -20 -16 -28 -15
-47 -12 -47 9 0 8 3 8 9 -2 6 -10 13 -11 29 -2z m177 -8 c-3 -5 -1 -12 5 -16
6 -4 7 -11 4 -17 -5 -7 -1 -9 9 -5 25 9 21 0 -5 -14 -13 -6 -20 -8 -16 -4 4 4
0 14 -9 20 -15 11 -15 15 -4 29 14 17 26 22 16 7z m-129 -13 c5 -8 2 -9 -10
-5 -14 6 -17 3 -12 -8 4 -11 2 -14 -6 -9 -8 5 -9 2 -5 -9 9 -24 0 -21 -14 4
-6 12 -7 19 -1 15 5 -3 12 1 16 9 6 18 22 19 32 3z m84 -3 c11 -13 10 -14 -4
-9 -9 3 -16 10 -16 15 0 13 6 11 20 -6z m90 5 c8 -5 12 -11 9 -14 -3 -3 -14 1
-25 9 -21 16 -8 20 16 5z m-251 -27 c-12 -15 -12 -16 4 -10 10 4 16 3 12 -2
-3 -5 1 -12 7 -14 8 -4 9 -6 2 -6 -7 -1 -22 8 -35 20 -13 11 -18 18 -11 14 6
-3 12 -1 12 4 0 6 5 11 11 11 8 0 7 -6 -2 -17z m143 -1 c-7 -2 -9 -8 -6 -14 3
-5 -3 -4 -15 3 -22 15 -9 31 18 21 10 -4 11 -7 3 -10z m-62 -12 c-6 -12 -7
-20 -1 -20 5 0 12 5 14 10 3 6 4 5 3 -2 -1 -7 -12 -14 -24 -14 -12 -1 -28 -7
-37 -14 -10 -8 -15 -9 -15 -1 0 6 5 11 10 11 6 0 20 11 32 25 26 30 32 32 18
5z m101 -2 c1 -7 1 -16 0 -20 0 -5 4 -8 9 -8 6 0 10 -5 10 -11 0 -8 -4 -9 -13
0 -16 12 -27 5 -27 -18 0 -14 2 -14 10 -1 5 8 10 11 10 5 0 -5 -4 -16 -9 -24
-7 -11 -10 -9 -16 8 -4 15 -1 29 10 41 9 10 12 21 7 24 -6 3 -12 -1 -16 -9 -3
-8 -10 -15 -16 -15 -5 0 -2 9 7 20 20 23 32 26 34 8z m-191 -18 c8 -5 11 -10
5 -10 -5 0 -17 5 -25 10 -8 5 -10 10 -5 10 6 0 17 -5 25 -10z m130 -21 c0 -5
5 -7 12 -3 7 4 8 3 4 -5 -6 -9 -11 -9 -22 0 -17 14 -18 19 -4 19 6 0 10 -5 10
-11z m-35 -14 c-5 15 -3 17 6 8 14 -14 3 -34 -15 -27 -8 3 -17 1 -21 -5 -3 -6
-12 -11 -18 -11 -7 0 -4 5 6 11 9 5 17 17 17 26 0 14 2 14 16 -3 15 -19 16
-19 9 1z m-65 -15 c0 -5 -5 -10 -11 -10 -5 0 -7 5 -4 10 3 6 8 10 11 10 2 0 4
-4 4 -10z m-49 -27 c2 1 1 -2 -4 -8 -5 -6 -11 -4 -17 5 -15 23 -11 37 4 18 7
-10 15 -17 17 -15z m159 17 c-20 -13 -33 -13 -25 0 3 6 14 10 23 10 15 0 15
-2 2 -10z m-187 -40 c10 -16 23 -30 28 -30 6 0 22 -9 36 -20 14 -11 21 -20 15
-20 -6 0 -14 5 -17 10 -4 6 -11 7 -17 4 -7 -4 -8 -2 -4 4 4 7 1 12 -8 12 -8 0
-24 13 -36 30 -14 19 -26 27 -38 24 -14 -5 -15 -4 -2 5 21 15 24 14 43 -19z
m111 13 c13 -4 17 -2 12 5 -4 7 -2 12 3 12 6 0 11 -5 11 -10 0 -19 -26 -21
-61 -5 -32 15 -17 14 35 -2z m96 7 c0 -5 -4 -10 -10 -10 -5 0 -10 5 -10 10 0
6 5 10 10 10 6 0 10 -4 10 -10z m-20 -28 c-7 -3 -19 3 -28 13 -16 15 -15 16
12 4 15 -7 23 -15 16 -17z m-130 14 c0 -2 -6 -9 -14 -15 -11 -9 -16 -9 -22 0
-4 8 -3 9 4 5 7 -4 12 -2 12 3 0 6 5 11 10 11 6 0 10 -2 10 -4z m-103 -12 c-3
-3 -12 -4 -19 -1 -8 3 -5 6 6 6 11 1 17 -2 13 -5z m13 -19 c-7 -8 -20 -15 -29
-14 -11 0 -9 3 7 9 12 5 22 15 22 21 0 7 3 9 6 6 4 -4 1 -13 -6 -22z m102 3
c-7 -7 -12 -8 -12 -2 0 14 12 26 19 19 2 -3 -1 -11 -7 -17z m88 1 c0 -6 -4 -7
-10 -4 -5 3 -10 11 -10 16 0 6 5 7 10 4 6 -3 10 -11 10 -16z m-64 -15 c-4 -9
-9 -15 -11 -12 -3 3 -3 13 1 22 4 9 9 15 11 12 3 -3 3 -13 -1 -22z m44 -7 c0
-5 -4 -5 -10 -2 -5 3 -10 14 -10 23 0 15 2 15 10 2 5 -8 10 -19 10 -23z m-140
3 c0 -5 -4 -10 -10 -10 -5 0 -10 5 -10 10 0 6 5 10 10 10 6 0 10 -4 10 -10z
m186 1 c-17 -7 -17 -8 -2 -24 10 -9 13 -17 7 -17 -5 0 -15 8 -20 18 -10 16
-10 16 -11 0 0 -10 -5 -18 -11 -18 -10 0 -5 13 14 38 5 6 17 12 26 11 13 0 12
-2 -3 -8z m-266 -11 c0 -5 -5 -10 -11 -10 -5 0 -7 5 -4 10 3 6 8 10 11 10 2 0
4 -4 4 -10z m50 -10 c0 -5 -4 -10 -10 -10 -5 0 -10 5 -10 10 0 6 5 10 10 10 6
0 10 -4 10 -10z m57 -5 c-4 -8 -2 -17 4 -20 5 -4 6 -11 3 -17 -5 -7 -1 -9 9
-5 25 9 21 0 -5 -14 -13 -6 -20 -8 -16 -4 4 4 0 14 -9 20 -14 10 -15 16 -5 27
6 8 9 18 5 21 -3 4 -1 7 6 7 7 0 11 -7 8 -15z m98 4 c11 -16 1 -19 -13 -3 -7
8 -8 14 -3 14 5 0 13 -5 16 -11z m-145 -29 c-12 -16 -28 -30 -36 -30 -8 0 -13
-4 -9 -10 3 -5 13 -6 23 -3 14 5 15 3 5 -7 -10 -10 -15 -11 -27 -1 -12 10 -16
9 -25 -6 -6 -10 -11 -14 -11 -9 0 14 31 46 45 46 7 0 20 11 29 25 9 14 19 25
22 25 3 0 -4 -13 -16 -30z m-40 9 c0 -5 5 -7 12 -3 7 4 8 3 4 -5 -6 -9 -11 -9
-22 0 -17 14 -18 19 -4 19 6 0 10 -5 10 -11z m130 1 c13 -8 13 -10 -2 -10 -9
0 -20 5 -23 10 -8 13 5 13 25 0z m42 -29 c-4 -10 -7 -11 -10 -3 -2 7 -8 9 -14
6 -5 -3 -4 3 3 15 15 22 31 9 21 -18z m-192 8 c0 -6 -4 -7 -10 -4 -5 3 -10 11
-10 16 0 6 5 7 10 4 6 -3 10 -11 10 -16z m249 1 c-6 -5 -18 -6 -26 -3 -19 8
-16 11 13 11 17 0 22 -3 13 -8z m-168 -20 c4 -29 26 -77 39 -83 6 -3 5 -4 -2
-3 -7 1 -18 12 -24 24 -6 12 -14 19 -17 16 -4 -4 -5 3 -2 15 2 11 0 21 -6 21
-5 0 -9 5 -9 10 0 6 5 10 10 10 6 0 11 -4 11 -10z m-120 -17 c13 -16 12 -17
-3 -4 -10 7 -18 15 -18 17 0 8 8 3 21 -13z m164 -3 c-3 -5 -1 -10 4 -10 6 0
11 -5 11 -10 0 -6 -8 -5 -20 2 -14 9 -16 14 -7 20 16 10 19 10 12 -2z m-167
-31 c-7 -5 -9 -9 -5 -9 5 0 5 -6 0 -12 -4 -7 -8 -19 -10 -27 -1 -8 -10 -22
-20 -32 -13 -14 -22 -16 -33 -8 -13 9 -12 10 2 5 10 -3 20 -1 23 4 4 6 1 10
-4 10 -6 0 -11 7 -11 15 0 8 5 15 11 15 5 0 8 -4 4 -9 -3 -5 -1 -12 4 -15 14
-9 21 20 8 33 -9 10 -8 15 5 25 10 7 15 16 11 20 -4 4 1 4 11 0 14 -5 15 -9 4
-15z m62 -7 c0 -15 -2 -15 -10 -2 -13 20 -13 33 0 25 6 -3 10 -14 10 -23z m32
11 c-6 -3 -9 -10 -6 -15 4 -7 2 -8 -5 -4 -9 6 -9 11 0 22 6 8 15 12 18 8 3 -4
0 -9 -7 -11z m99 -20 c-12 -20 -14 -14 -5 12 4 9 9 14 11 11 3 -2 0 -13 -6
-23z m-161 -13 c-23 -15 -37 -11 -18 4 10 7 16 15 14 18 -1 3 2 1 8 -4 8 -6 6
-12 -4 -18z m186 4 c-4 -9 -9 -15 -11 -12 -3 3 -3 13 1 22 4 9 9 15 11 12 3
-3 3 -13 -1 -22z m-96 6 c0 -5 -4 -10 -10 -10 -5 0 -10 5 -10 10 0 6 5 10 10
10 6 0 10 -4 10 -10z m-19 -27 c13 -15 12 -15 -9 -2 -20 12 -24 12 -32 -1 -5
-8 -12 -11 -17 -7 -8 9 14 27 33 27 6 0 18 -7 25 -17z m39 -3 c0 -5 -4 -10
-10 -10 -5 0 -10 5 -10 10 0 6 5 10 10 10 6 0 10 -4 10 -10z m74 -32 c-4 -5
-15 -8 -25 -5 -10 3 -22 1 -25 -4 -3 -5 -10 -7 -15 -4 -5 4 -9 0 -9 -7 0 -8
-5 -6 -11 5 -6 9 -14 15 -20 12 -5 -4 -9 -1 -9 4 0 14 17 14 25 0 5 -6 12 -4
20 8 11 14 16 16 26 6 7 -7 20 -13 29 -13 13 1 12 3 -2 14 -10 7 -18 17 -18
21 0 5 9 0 20 -10 11 -10 17 -22 14 -27z m-204 -2 c10 -13 10 -17 3 -12 -8 4
-13 2 -13 -6 0 -10 -2 -10 -9 1 -5 8 -7 20 -4 28 3 8 6 13 7 11 1 -2 8 -12 16
-22z m72 15 c-8 -4 -19 -19 -26 -32 -7 -15 -19 -23 -30 -21 -10 2 -15 -1 -12
-6 3 -6 -1 -13 -9 -16 -18 -7 -65 13 -65 28 0 6 5 5 12 -2 17 -17 33 -15 18 3
-9 10 -9 15 -1 15 10 0 15 -13 12 -32 -2 -13 8 -9 29 12 12 12 25 18 30 15 6
-4 10 0 10 7 0 17 20 38 35 38 5 0 4 -4 -3 -9z m-42 -11 c0 -5 -2 -10 -4 -10
-3 0 -8 5 -11 10 -3 6 -1 10 4 10 6 0 11 -4 11 -10z m-123 -31 c-9 -6 -15 -14
-12 -20 4 -5 1 -9 -4 -9 -13 0 -13 3 -5 24 3 9 14 16 23 16 14 -1 14 -2 -2
-11z m175 -6 c-6 -3 -10 -9 -6 -14 6 -10 -9 -12 -19 -2 -4 3 1 12 11 19 9 7
19 10 22 7 3 -3 -1 -8 -8 -10z m80 -5 c-7 -7 -12 -8 -12 -2 0 6 3 14 7 17 3 4
9 5 12 2 2 -3 -1 -11 -7 -17z m-42 -13 c0 -8 -2 -15 -4 -15 -2 0 -6 7 -10 15
-3 8 -1 15 4 15 6 0 10 -7 10 -15z m-190 -9 c0 -2 -6 -9 -14 -15 -11 -9 -16
-9 -22 0 -4 8 -3 9 4 5 7 -4 12 -2 12 3 0 6 5 11 10 11 6 0 10 -2 10 -4z m130
-6 c13 -8 13 -10 -2 -10 -9 0 -20 5 -23 10 -8 13 5 13 25 0z m31 -13 c-10 -9
-11 -8 -5 6 3 10 9 15 12 12 3 -3 0 -11 -7 -18z m-187 -17 c8 0 20 -8 27 -17
10 -11 10 -14 2 -9 -8 4 -13 1 -13 -9 0 -8 -6 -18 -14 -21 -8 -3 -14 -11 -12
-17 1 -7 1 -9 -1 -4 -3 4 -9 4 -15 1 -5 -3 -4 3 3 14 7 12 16 19 20 16 4 -2 9
4 11 13 2 10 -5 22 -16 28 -11 6 -21 17 -23 25 -3 10 -1 9 7 -2 6 -10 17 -18
24 -18z m38 8 c-7 -7 -12 -8 -12 -2 0 14 12 26 19 19 2 -3 -1 -11 -7 -17z m88
1 c0 -6 -4 -7 -10 -4 -5 3 -10 11 -10 16 0 6 5 7 10 4 6 -3 10 -11 10 -16z
m-160 -24 c0 -5 -5 -3 -10 5 -5 8 -10 20 -10 25 0 6 5 3 10 -5 5 -8 10 -19 10
-25z m96 9 c-4 -9 -9 -15 -11 -12 -3 3 -3 13 1 22 4 9 9 15 11 12 3 -3 3 -13
-1 -22z m44 -7 c0 -5 -4 -5 -10 -2 -5 3 -10 14 -10 23 0 15 2 15 10 2 5 -8 10
-19 10 -23z m-160 -7 c0 -5 -2 -10 -4 -10 -3 0 -8 5 -11 10 -3 6 -1 10 4 10 6
0 11 -4 11 -10z m40 -10 c-8 -5 -19 -10 -25 -10 -5 0 -3 5 5 10 8 5 20 10 25
10 6 0 3 -5 -5 -10z m105 1 c3 -5 0 -13 -6 -17 -8 -5 -9 -3 -4 6 6 9 1 10 -16
5 -19 -5 -21 -4 -9 4 19 13 27 14 35 2z m-135 -21 c13 -8 13 -10 -2 -10 -9 0
-20 5 -23 10 -8 13 5 13 25 0z m-40 -34 c-13 -16 -35 -12 -24 5 3 5 10 6 16 3
8 -5 9 -1 4 12 -6 15 -5 16 5 7 10 -10 9 -15 -1 -27z m56 -12 c18 -15 18 -15
-3 -5 -30 15 -38 14 -23 -4 9 -10 9 -15 1 -15 -6 0 -11 5 -11 11 0 5 -6 7 -12
3 -9 -5 -9 -2 1 9 17 21 22 21 47 1z m-81 -14 c3 -5 1 -10 -4 -10 -6 0 -11 5
-11 10 0 6 2 10 4 10 3 0 8 -4 11 -10z m35 -21 c0 -5 -4 -7 -10 -4 -5 3 -10
-1 -10 -9 0 -9 -5 -16 -10 -16 -7 0 -7 6 0 20 11 21 30 27 30 9z m-50 -14 c-7
-9 -15 -13 -19 -10 -3 3 1 10 9 15 21 14 24 12 10 -5z"/>
<path d="M660 970 c0 -5 5 -10 11 -10 5 0 7 5 4 10 -3 6 -8 10 -11 10 -2 0 -4
-4 -4 -10z"/>
<path d="M420 730 c0 -5 5 -10 11 -10 5 0 7 5 4 10 -3 6 -8 10 -11 10 -2 0 -4
-4 -4 -10z"/>
<path d="M260 629 c0 -5 5 -7 10 -4 6 3 10 8 10 11 0 2 -4 4 -10 4 -5 0 -10
-5 -10 -11z"/>
<path d="M440 569 c0 -5 5 -7 10 -4 6 3 10 8 10 11 0 2 -4 4 -10 4 -5 0 -10
-5 -10 -11z"/>
<path d="M1055 1302 c-4 -4 71 -100 95 -122 3 -3 30 -34 60 -70 30 -35 63 -73
74 -85 62 -68 97 -148 189 -437 23 -71 30 -80 42 -50 14 35 117 328 127 362 8
29 51 91 93 136 5 6 30 35 55 64 25 30 73 87 108 127 71 81 69 85 -35 63 -26
-6 -117 -24 -202 -40 -165 -32 -158 -32 -346 6 -11 3 -36 7 -55 10 -19 3 -72
14 -117 23 -46 10 -85 16 -88 13z"/>
<path d="M425 890 c3 -5 8 -10 11 -10 2 0 4 5 4 10 0 6 -5 10 -11 10 -5 0 -7
-4 -4 -10z"/>
<path d="M386 408 c-71 -43 -130 -78 -131 -78 -1 0 -51 -29 -111 -65 l-108
-65 664 2 664 3 0 128 c1 71 -2 134 -6 140 -5 8 -133 11 -425 11 l-418 1 -129
-77z"/>
<path d="M1685 480 c-11 -4 -22 -6 -25 -5 -3 2 -5 -21 -6 -51 0 -36 4 -55 14
-59 10 -3 12 1 7 18 -5 19 -4 20 5 4 12 -19 4 -41 -11 -32 -5 4 -9 3 -10 -2 0
-4 -2 -16 -4 -25 -5 -25 11 -22 29 4 9 12 18 20 20 17 3 -3 -5 -17 -18 -32
-13 -15 -25 -25 -27 -22 -3 2 -5 -5 -5 -15 0 -11 4 -20 8 -20 4 0 8 -5 8 -11
0 -5 -4 -8 -8 -5 -5 3 -9 -1 -9 -9 0 -17 13 -20 22 -5 7 11 35 2 35 -12 0 -7
-5 -6 -13 1 -8 6 -17 8 -20 4 -13 -12 -7 -19 18 -21 14 -1 25 4 25 11 0 7 3 8
8 2 10 -14 32 -17 32 -5 0 6 -5 10 -12 10 -6 0 -8 3 -4 7 4 5 13 1 19 -7 15
-19 117 -24 117 -7 0 8 3 8 8 2 14 -19 74 -14 92 8 13 16 19 17 25 7 5 -8 4
-11 -2 -7 -6 4 -13 1 -16 -6 -6 -17 54 -19 65 -3 5 8 8 7 8 -1 0 -7 5 -13 10
-13 12 0 9 22 -5 32 -6 4 -2 8 8 8 12 0 17 -6 15 -18 -3 -15 7 -17 95 -18 64
-1 97 3 97 10 0 8 3 8 8 1 4 -6 41 -11 82 -11 62 0 78 3 91 20 12 15 18 16 24
6 5 -8 4 -11 -2 -7 -6 4 -13 1 -16 -6 -3 -9 6 -13 29 -14 19 -1 34 4 34 10 0
8 3 8 8 2 13 -19 64 -14 82 8 13 16 19 17 25 7 5 -8 4 -11 -2 -7 -6 4 -13 1
-16 -6 -6 -17 54 -19 65 -3 6 8 8 8 8 0 0 -7 31 -11 92 -11 81 1 95 3 111 21
10 12 16 17 14 11 -7 -14 13 -29 43 -33 22 -3 20 0 -15 23 l-39 27 -17 -21
c-15 -18 -18 -19 -23 -4 -4 9 -2 21 4 27 8 8 9 6 4 -8 -5 -13 -4 -17 4 -12 7
4 12 12 12 17 0 14 -31 24 -39 13 -3 -6 -24 -20 -46 -33 -35 -20 -40 -21 -51
-7 -6 9 -15 12 -19 8 -4 -4 -2 3 4 16 14 26 23 29 14 5 -3 -10 -3 -15 2 -11 4
4 13 4 20 -2 7 -6 22 -3 43 10 31 19 43 40 22 40 -5 0 -10 -5 -10 -11 0 -5 -4
-8 -9 -5 -5 4 -12 0 -14 -6 -4 -10 -6 -10 -6 0 -1 6 -5 12 -11 12 -5 0 -7 -8
-3 -17 5 -14 3 -15 -7 -6 -14 13 -5 35 14 31 6 -2 12 2 13 7 0 6 -3 9 -8 7 -5
-1 -12 5 -15 13 -4 8 -11 15 -16 15 -6 0 -7 -7 -4 -16 3 -9 4 -20 1 -24 -7
-11 -35 -1 -35 12 0 6 6 5 15 -2 18 -15 18 -10 5 24 -5 14 -17 26 -26 26 -9 0
-23 8 -31 18 -10 11 -12 12 -8 2 4 -10 2 -9 -8 3 -8 9 -22 17 -31 17 -9 0 -16
5 -16 11 0 6 -7 8 -17 5 -10 -4 -14 -4 -11 0 10 9 -61 56 -73 49 -5 -4 -12 0
-15 9 -7 19 -45 17 -61 -4 -11 -13 -15 -12 -34 10 -15 18 -19 20 -15 7 3 -11
2 -16 -4 -12 -6 3 -10 1 -10 -4 0 -6 -5 -11 -12 -11 -9 0 -9 3 0 12 21 21 13
32 -10 12 -12 -10 -18 -13 -14 -6 4 6 2 12 -3 12 -6 0 -11 -5 -11 -11 0 -6 -7
-3 -16 5 -8 9 -21 13 -27 9 -6 -4 -25 -6 -42 -5 -30 2 -30 2 -6 -10 25 -13 43
-44 22 -37 -7 3 -13 9 -14 14 -1 6 -12 16 -25 23 -29 14 -35 15 -28 3 4 -5 2
-20 -3 -33 -7 -17 -10 -18 -10 -5 -1 9 -5 17 -11 17 -5 0 -10 5 -10 11 0 8 5
8 15 -1 16 -13 20 -3 7 17 -6 10 -17 8 -47 -8 -22 -11 -32 -13 -22 -6 9 8 17
18 17 22 0 4 -6 2 -14 -4 -9 -8 -22 -8 -38 -2 -14 5 -30 6 -37 2 -7 -5 -24 -6
-39 -4 -15 2 -20 0 -12 -3 23 -10 50 -36 50 -47 0 -6 -6 -3 -13 8 -10 12 -16
14 -21 7 -4 -7 -2 -12 3 -12 6 0 11 -5 11 -11 0 -8 -6 -7 -16 2 -15 12 -16 11
-10 -11 6 -21 5 -22 -4 -7 -6 9 -8 22 -5 27 3 6 2 10 -4 10 -16 0 -24 -21 -12
-33 6 -6 11 -16 11 -21 0 -6 -5 -3 -11 7 -5 9 -17 17 -26 17 -11 0 -8 6 10 20
14 11 29 20 34 19 25 -4 24 3 -1 16 -35 18 -37 18 -30 2 3 -8 -3 -20 -12 -28
-12 -9 -15 -10 -10 -1 4 6 2 12 -3 12 -6 0 -11 5 -11 11 0 8 5 8 15 -1 16 -13
20 -3 7 17 -6 10 -17 8 -47 -8 -22 -11 -32 -13 -22 -6 9 8 17 18 17 22 0 4 -6
2 -14 -4 -9 -8 -22 -8 -38 -2 -14 5 -30 6 -37 2 -7 -5 -24 -6 -39 -4 l-27 4
24 -13 c25 -13 43 -44 22 -36 -7 2 -11 7 -9 11 2 6 -45 37 -56 37 -8 0 3 -41
14 -55 12 -15 12 -19 -3 -30 -12 -8 -14 -15 -8 -20 14 -8 14 -25 1 -25 -5 0
-9 4 -7 9 1 5 -7 17 -18 25 l-20 16 20 -7 c11 -3 17 -3 13 2 -4 4 -3 14 3 21
8 10 5 16 -10 26 -12 7 -21 17 -21 22 0 4 7 3 15 -4 16 -13 20 -3 7 16 -4 7
-15 8 -27 4z m137 -22 c-7 -7 -12 -8 -12 -2 0 14 12 26 19 19 2 -3 -1 -11 -7
-17z m240 0 c-7 -7 -12 -8 -12 -2 0 14 12 26 19 19 2 -3 -1 -11 -7 -17z m240
0 c-7 -7 -12 -8 -12 -2 0 14 12 26 19 19 2 -3 -1 -11 -7 -17z m-448 -5 c4 -10
4 -14 0 -10 -4 4 -13 -2 -21 -13 -8 -11 -22 -20 -31 -19 -13 0 -12 3 5 11 13
6 25 19 28 29 8 23 11 24 19 2z m276 -13 c12 19 13 0 0 -20 -8 -13 -12 -11
-26 8 -13 19 -18 21 -32 10 -14 -12 -14 -11 -2 8 l13 22 19 -22 c15 -18 19
-19 28 -6z m372 -9 c-5 -14 -3 -14 11 -2 11 9 17 10 17 2 0 -6 -5 -11 -11 -11
-5 0 -7 -6 -3 -12 6 -10 4 -10 -8 0 -8 7 -15 24 -15 38 0 17 2 22 7 13 5 -6 5
-19 2 -28z m-822 14 c0 -8 -4 -15 -10 -15 -5 0 -7 7 -4 15 4 8 8 15 10 15 2 0
4 -7 4 -15z m250 -20 c0 -5 -5 -3 -10 5 -5 8 -10 20 -10 25 0 6 5 3 10 -5 5
-8 10 -19 10 -25z m-160 -4 c12 -30 7 -51 -11 -51 -5 0 -9 5 -9 11 0 5 5 7 10
4 15 -10 12 18 -6 43 -8 12 -11 22 -6 22 5 0 15 -13 22 -29z m125 19 c-3 -5
-12 -10 -18 -10 -7 0 -6 4 3 10 19 12 23 12 15 0z m353 -11 c7 -11 10 -30 6
-41 -5 -16 -8 -18 -15 -7 -5 8 -9 19 -9 24 0 6 5 3 10 -5 8 -13 10 -13 10 1 0
23 -11 30 -27 18 -9 -9 -13 -8 -13 0 0 6 5 11 11 11 5 0 7 5 4 10 -3 6 -2 10
2 10 5 0 14 -9 21 -21z m125 7 c9 -5 17 -12 17 -18 0 -5 -10 -2 -21 6 -12 8
-27 12 -34 10 -7 -3 -16 -1 -19 5 -7 11 29 9 57 -3z m53 2 c4 -6 3 -8 -4 -4
-5 3 -13 0 -15 -6 -3 -8 -6 -6 -6 5 -1 19 14 23 25 5z m51 0 c0 -7 4 -22 7
-33 5 -13 2 -12 -8 5 -17 29 -20 40 -8 40 5 0 9 -6 9 -12z m-772 -18 c-3 -5
-14 -10 -23 -10 -15 0 -15 2 -2 10 20 13 33 13 25 0z m165 -18 c0 -15 -2 -15
-10 -2 -13 20 -13 33 0 25 6 -3 10 -14 10 -23z m32 11 c-6 -3 -9 -10 -6 -15 4
-7 2 -8 -5 -4 -9 6 -9 11 0 22 6 8 15 12 18 8 3 -4 0 -9 -7 -11z m184 8 c-4
-5 0 -12 6 -15 7 -3 2 -3 -11 0 -16 4 -21 3 -17 -5 4 -6 2 -11 -3 -11 -17 0
-13 18 7 29 21 13 25 13 18 2z m104 -21 c0 -6 -5 -10 -11 -10 -5 0 -7 5 -4 10
10 16 -11 12 -25 -5 -10 -12 -10 -15 4 -15 9 0 16 -5 16 -11 0 -8 5 -7 15 1 9
7 18 10 22 6 3 -3 1 -6 -6 -6 -7 0 -10 -4 -7 -9 7 -11 -17 -31 -41 -36 -10 -2
-20 -4 -23 -5 -3 -1 -9 -2 -14 -1 -5 1 -6 -5 -3 -14 9 -23 -1 -18 -14 8 -6 12
-8 19 -4 15 4 -4 14 0 21 10 10 13 15 14 25 5 13 -13 42 -6 33 8 -3 5 -11 6
-17 3 -7 -4 -9 -4 -5 1 4 4 -1 15 -10 24 -10 9 -16 15 -14 14 8 -4 30 22 25
30 -3 5 4 4 16 -2 11 -7 21 -16 21 -21z m120 26 c0 -2 -6 -9 -14 -15 -11 -9
-16 -9 -22 0 -4 8 -3 9 4 5 7 -4 12 -2 12 3 0 6 5 11 10 11 6 0 10 -2 10 -4z
m137 -3 c-4 -3 1 -12 11 -19 14 -11 15 -15 3 -26 -12 -11 -13 -10 -7 6 5 14 2
17 -9 12 -11 -4 -14 -2 -9 6 5 8 1 9 -12 5 -18 -7 -18 -7 0 8 20 15 35 21 23
8z m-123 -20 c-5 -15 -3 -15 10 1 14 17 16 17 16 3 0 -9 8 -21 18 -26 9 -6 12
-11 5 -11 -6 0 -15 5 -18 11 -4 6 -13 8 -21 5 -16 -6 -28 9 -19 24 10 16 15
12 9 -7z m256 7 c13 -9 13 -11 0 -20 -8 -5 -17 -10 -20 -10 -3 0 -12 5 -20 10
-13 9 -13 11 0 20 8 5 17 10 20 10 3 0 12 -5 20 -10z m-730 -21 c0 -6 -4 -7
-10 -4 -5 3 -10 11 -10 16 0 6 5 7 10 4 6 -3 10 -11 10 -16z m93 -19 c-3 -3
-8 1 -10 8 -3 6 -9 10 -14 6 -10 -6 -12 9 -2 19 3 4 12 -1 19 -11 7 -9 10 -19
7 -22z m-119 1 c-4 -3 -9 0 -11 7 -3 6 -10 9 -15 6 -7 -4 -8 -2 -4 5 6 9 11 9
22 0 8 -6 12 -15 8 -18z m611 -1 c4 -6 -5 -5 -19 2 -14 6 -26 15 -26 20 0 10
36 -7 45 -22z m-330 10 c-3 -5 -12 -10 -20 -10 -8 0 -18 -7 -22 -15 -7 -12
-10 -11 -21 5 -7 12 -8 20 -2 20 5 0 10 -5 10 -11 0 -5 10 -3 22 5 25 18 42
21 33 6z m200 0 c8 -13 -5 -13 -25 0 -13 8 -13 10 2 10 9 0 20 -4 23 -10z
m195 -19 c-6 -12 -16 -21 -23 -21 -8 0 -9 3 -1 8 6 4 14 16 17 26 4 10 10 16
13 13 3 -3 1 -15 -6 -26z m130 3 c0 -8 5 -14 12 -14 6 0 8 -3 4 -7 -4 -5 -14
1 -22 11 -16 23 -19 40 -4 31 6 -3 10 -13 10 -21z m-714 1 c16 -8 23 -15 16
-15 -7 0 -21 5 -31 12 -15 9 -22 8 -36 -5 -19 -20 -35 -22 -35 -5 0 6 3 9 6 5
4 -3 13 0 21 8 18 19 24 19 59 0z m100 -12 c-4 -4 -12 -1 -19 7 -9 10 -9 11 1
6 7 -4 12 -2 13 6 0 11 2 11 6 0 3 -7 2 -16 -1 -19z m240 -49 c-3 -8 -10 -13
-15 -10 -5 3 -11 -1 -15 -9 -3 -8 -10 -15 -16 -15 -5 0 -2 9 7 19 9 11 20 18
25 15 4 -3 8 2 8 10 0 9 -3 15 -7 15 -20 -3 -33 2 -33 12 0 8 5 8 15 -1 9 -8
15 -9 15 -2 0 6 -4 14 -10 17 -5 3 -10 12 -10 18 0 7 10 -3 21 -21 12 -18 18
-39 15 -48z m286 62 c6 4 5 -2 -1 -15 -12 -22 -31 -29 -31 -10 0 5 5 7 11 3 8
-4 9 1 5 17 -3 13 -3 18 0 11 3 -6 10 -9 16 -6z m54 -1 c-3 -8 -1 -15 4 -15 6
0 10 -4 10 -10 0 -17 -14 -11 -28 11 -8 12 -9 18 -3 14 6 -3 11 -1 11 4 0 6 3
11 6 11 3 0 4 -7 0 -15z m74 -20 c0 -5 -5 -3 -10 5 -5 8 -10 20 -10 25 0 6 5
3 10 -5 5 -8 10 -19 10 -25z m-875 16 c-3 -6 3 -14 12 -20 11 -6 13 -11 5 -11
-7 0 -11 -4 -7 -9 3 -5 0 -13 -6 -17 -8 -4 -9 -3 -5 4 4 7 2 12 -3 12 -6 0
-11 -5 -11 -12 0 -6 -3 -8 -7 -4 -5 4 0 14 10 21 12 8 14 15 8 20 -14 8 -14
25 0 25 5 0 8 -4 4 -9z m190 -11 c4 -11 11 -17 17 -14 7 4 8 2 4 -5 -9 -14
-22 -7 -36 20 -7 12 -7 19 -1 19 5 0 13 -9 16 -20z m125 5 c-14 -8 -29 -14
-35 -14 -5 0 1 6 15 14 14 8 30 14 35 14 6 0 -1 -6 -15 -14z m170 5 c0 -5 -4
-10 -10 -10 -5 0 -10 5 -10 10 0 6 5 10 10 10 6 0 10 -4 10 -10z m70 0 c0 -5
-4 -10 -10 -10 -5 0 -10 5 -10 10 0 6 5 10 10 10 6 0 10 -4 10 -10z m70 -6 c0
-2 -7 -4 -15 -4 -8 0 -15 4 -15 10 0 5 7 7 15 4 8 -4 15 -8 15 -10z m-652 -19
c-3 -3 -9 2 -12 12 -6 14 -5 15 5 6 7 -7 10 -15 7 -18z m542 10 c-7 -8 -20
-15 -29 -15 -11 1 -8 5 9 15 32 18 35 18 20 0z m-404 -7 c5 -8 2 -9 -10 -5
-14 6 -17 3 -12 -8 4 -11 2 -14 -6 -9 -8 5 -9 2 -5 -9 9 -24 0 -21 -14 4 -6
12 -7 19 -1 15 5 -3 12 1 16 9 6 18 22 19 32 3z m47 -5 c-4 -11 -3 -14 5 -9 8
5 10 2 6 -9 -5 -11 -2 -14 12 -9 16 6 17 5 6 -7 -11 -12 -15 -11 -26 3 -7 10
-17 14 -21 10 -4 -4 -2 3 4 16 14 26 23 30 14 5z m89 -22 c-4 -10 -7 -11 -10
-3 -2 7 -8 9 -14 6 -5 -3 -4 3 3 15 15 22 31 9 21 -18z m331 32 c-7 -2 -13 -9
-13 -14 0 -6 5 -7 12 -3 7 4 8 3 4 -5 -4 -6 -12 -9 -17 -6 -5 4 -9 1 -9 -6 0
-7 -7 -4 -16 7 -15 19 -16 19 -9 -1 5 -15 3 -17 -6 -8 -16 16 -2 38 16 23 9
-8 14 -6 19 5 3 8 11 15 18 14 10 0 10 -2 1 -6z m69 -32 c-4 -10 -7 -11 -10
-3 -2 7 -8 9 -14 6 -5 -3 -4 3 3 15 15 22 31 9 21 -18z m246 13 c0 -17 -3 -22
-8 -13 -5 6 -6 18 -3 26 8 19 11 16 11 -13z m-948 -9 c-7 -8 -19 -15 -27 -15
-8 0 -12 -4 -9 -9 3 -4 -1 -17 -9 -27 -15 -19 -15 -19 -8 0 5 15 3 17 -8 11
-8 -5 -5 1 5 13 11 12 25 22 33 22 7 0 16 7 20 15 3 9 8 14 11 11 3 -3 -1 -12
-8 -21z m670 21 c0 -3 -4 -8 -10 -11 -5 -3 -10 -1 -10 4 0 6 5 11 10 11 6 0
10 -2 10 -4z m320 -7 c0 -5 -4 -7 -10 -4 -5 3 -10 1 -10 -6 0 -7 -3 -10 -6 -6
-8 7 4 27 17 27 5 0 9 -5 9 -11z m-886 -15 c3 -8 2 -12 -4 -9 -6 3 -10 1 -10
-4 0 -6 -5 -11 -10 -11 -6 0 -5 8 2 20 15 24 14 24 22 4z m368 -2 c-7 -2 -9
-8 -6 -14 3 -5 -3 -4 -15 3 -22 15 -9 31 18 21 10 -4 11 -7 3 -10z m288 9 c0
-5 -9 -7 -20 -4 -11 3 -20 7 -20 9 0 2 9 4 20 4 11 0 20 -4 20 -9z m73 2 c-7
-2 -19 -2 -25 0 -7 3 -2 5 12 5 14 0 19 -2 13 -5z m67 -4 c-23 -9 -23 -11 -7
-20 9 -6 15 -14 12 -20 -4 -5 -2 -9 3 -9 16 0 22 13 11 27 -6 7 -8 13 -4 13
11 0 55 -53 49 -59 -3 -3 -10 2 -16 12 -8 15 -12 16 -24 6 -11 -9 -18 -9 -26
-1 -7 7 -8 12 -4 12 5 0 -2 9 -15 21 -13 11 -18 18 -11 14 6 -3 12 -1 12 4 0
6 10 11 23 10 21 0 21 -1 -3 -10z m-732 -25 c-7 -15 -14 -21 -16 -15 -2 7 2
18 8 26 18 22 21 18 8 -11z m396 -3 c-4 -3 -9 0 -11 7 -3 6 -10 9 -15 6 -7 -4
-8 -2 -4 5 6 9 11 9 22 0 8 -6 12 -15 8 -18z m-541 -18 c-4 -9 0 -11 11 -7 9
3 13 10 10 15 -3 5 0 9 5 9 16 0 13 -15 -4 -30 -19 -16 -32 -6 -32 26 0 17 2
22 7 13 5 -6 6 -18 3 -26z m297 22 c-10 -12 -10 -18 0 -30 7 -9 8 -15 2 -15
-5 0 -12 7 -16 15 -7 19 3 45 16 45 6 0 5 -6 -2 -15z m65 -20 c-16 -13 -32
-21 -35 -18 -3 3 1 8 9 11 7 2 20 13 29 23 9 10 18 16 21 13 4 -3 -7 -16 -24
-29z m257 18 c-7 -3 -25 -17 -39 -32 -22 -23 -24 -24 -14 -3 7 12 8 22 2 22
-5 0 -12 -5 -14 -10 -3 -6 -4 -5 -3 2 1 7 13 14 25 14 12 1 27 6 33 12 7 7 14
9 17 5 3 -3 0 -8 -7 -10z m88 13 c0 -2 -7 -9 -15 -16 -13 -11 -14 -10 -9 4 5
14 24 23 24 12z m80 -7 c0 -8 5 -7 15 1 9 7 18 10 22 7 3 -4 -2 -9 -11 -13 -9
-3 -16 -10 -16 -15 0 -6 9 -5 21 1 11 7 23 10 25 7 2 -2 -7 -9 -20 -15 -21 -9
-27 -8 -40 14 -9 13 -12 24 -6 24 5 0 10 -5 10 -11z m-600 -20 c0 -5 -2 -9 -4
-9 -2 0 -11 -3 -20 -6 -9 -3 -16 -1 -16 6 0 6 5 8 12 4 7 -5 9 -2 5 9 -4 11
-2 14 9 10 7 -3 14 -9 14 -14z m76 10 c10 -17 -13 -36 -27 -22 -12 12 -4 33
11 33 5 0 12 -5 16 -11z m136 -11 c-9 -9 -9 -15 0 -25 8 -10 8 -17 -2 -26 -10
-10 -12 -9 -7 5 9 25 -5 31 -17 6 -6 -12 -18 -23 -26 -25 -10 -3 -9 -1 3 7 9
6 17 16 17 21 0 13 34 58 39 53 3 -2 -1 -10 -7 -16z m265 6 c2 -5 -6 -15 -18
-22 -12 -8 -18 -9 -15 -4 3 6 3 12 -1 15 -5 2 -3 2 4 1 16 -4 26 13 13 19 -6
3 -5 4 2 3 6 -1 13 -7 15 -12z m63 6 c-8 -5 -11 -12 -7 -16 3 -4 14 -1 22 6
13 11 18 10 29 -6 8 -10 12 -21 9 -24 -2 -3 -9 3 -15 13 -8 15 -12 16 -24 6
-11 -9 -18 -9 -26 -1 -12 12 -3 32 15 32 7 0 6 -4 -3 -10z m-750 -10 c0 -5 -2
-10 -4 -10 -3 0 -8 5 -11 10 -3 6 -1 10 4 10 6 0 11 -4 11 -10z m120 -4 c0 -8
-4 -18 -10 -21 -6 -4 -7 1 -3 11 5 13 3 15 -7 9 -9 -5 -11 -4 -6 3 10 17 26
15 26 -2z m240 10 c0 -2 -7 -6 -15 -10 -8 -3 -15 -1 -15 4 0 6 7 10 15 10 8 0
15 -2 15 -4z m163 -15 c-9 -11 -20 -18 -25 -15 -4 3 -8 -2 -8 -10 0 -9 3 -15
8 -15 19 3 32 -2 32 -12 0 -8 -5 -8 -15 1 -12 10 -15 10 -15 -1 -1 -9 -4 -8
-11 4 -12 20 -4 52 10 43 5 -3 11 1 15 9 3 8 10 15 16 15 5 0 2 -9 -7 -19z
m474 3 c-3 -3 -12 -4 -19 -1 -8 3 -5 6 6 6 11 1 17 -2 13 -5z m-999 -35 c-6
-4 -18 -4 -27 -1 -10 4 -11 7 -3 10 7 2 9 8 6 14 -3 5 3 4 15 -3 13 -9 16 -16
9 -20z m80 -3 c-10 -7 -14 -17 -10 -21 4 -4 -3 -2 -15 4 -27 14 -31 23 -6 14
11 -4 14 -3 9 5 -5 8 -2 10 9 6 11 -5 14 -2 9 12 -6 16 -5 17 7 6 12 -11 11
-15 -3 -26z m80 3 c-6 -4 -18 -4 -27 -1 -10 4 -11 7 -3 10 7 2 9 8 6 14 -3 5
3 4 15 -3 13 -9 16 -16 9 -20z m88 19 c5 -8 2 -9 -10 -5 -14 6 -17 3 -12 -8 4
-11 2 -14 -6 -9 -8 5 -9 2 -5 -9 9 -24 0 -21 -14 4 -6 12 -7 19 -1 15 5 -3 12
1 16 9 6 18 22 19 32 3z m204 1 c0 -5 5 -7 12 -3 7 4 8 3 4 -5 -6 -9 -11 -9
-22 0 -17 14 -18 19 -4 19 6 0 10 -5 10 -11z m108 -20 c-6 -4 -18 -4 -27 -1
-10 4 -11 7 -3 10 7 2 9 8 6 14 -3 5 3 4 15 -3 13 -9 16 -16 9 -20z m83 9 c6
-13 8 -20 4 -16 -4 4 -14 0 -21 -10 -11 -14 -15 -15 -26 -3 -11 12 -10 13 6 7
14 -5 17 -2 12 9 -4 11 -2 14 6 9 8 -5 9 -2 5 9 -9 25 0 21 14 -5z m85 10 c5
-8 2 -9 -10 -5 -14 6 -17 3 -12 -8 4 -11 2 -14 -6 -9 -8 5 -9 2 -5 -9 9 -24 0
-21 -14 4 -6 12 -7 19 -1 15 5 -3 12 1 16 9 6 18 22 19 32 3z m160 0 c5 -8 2
-9 -10 -5 -14 6 -17 3 -12 -8 4 -11 2 -14 -6 -9 -8 5 -9 2 -5 -9 9 -24 0 -21
-14 4 -6 12 -7 19 -1 15 5 -3 12 1 16 9 6 18 22 19 32 3z m-583 -35 c-3 -8 -6
-13 -7 -11 -1 2 -8 12 -16 22 -10 13 -10 17 -2 12 7 -4 12 -2 12 6 0 10 2 10
9 -1 5 -8 7 -20 4 -28z m480 0 c-3 -8 -6 -13 -7 -11 -1 2 -8 12 -16 22 -10 13
-10 17 -2 12 7 -4 12 -2 12 6 0 10 2 10 9 -1 5 -8 7 -20 4 -28z m160 0 c-3 -8
-6 -13 -7 -11 -1 2 -8 12 -16 22 -10 13 -10 17 -2 12 7 -4 12 -2 12 6 0 10 2
10 9 -1 5 -8 7 -20 4 -28z m-813 -5 c0 -6 -6 -5 -15 2 -12 10 -15 10 -15 0 0
-8 -3 -11 -6 -7 -3 3 -3 10 0 16 8 12 36 3 36 -11z m695 13 c3 -5 0 -13 -6
-17 -7 -4 -9 -3 -5 4 3 5 0 13 -6 15 -9 4 -10 6 -1 6 6 1 14 -3 18 -8z m-638
-7 c-3 -3 -12 -4 -19 -1 -8 3 -5 6 6 6 11 1 17 -2 13 -5z m273 -4 c-20 -13
-33 -13 -25 0 3 6 14 10 23 10 15 0 15 -2 2 -10z m640 0 c-20 -13 -33 -13 -25
0 3 6 14 10 23 10 15 0 15 -2 2 -10z"/>
<path d="M2120 329 c0 -5 5 -7 10 -4 6 3 10 8 10 11 0 2 -4 4 -10 4 -5 0 -10
-5 -10 -11z"/>
<path d="M2550 400 c0 -5 5 -10 10 -10 6 0 10 5 10 10 0 6 -4 10 -10 10 -5 0
-10 -4 -10 -10z"/>
<path d="M2000 280 c0 -5 5 -10 10 -10 6 0 10 5 10 10 0 6 -4 10 -10 10 -5 0
-10 -4 -10 -10z"/>
<path d="M2430 470 c0 -5 5 -10 10 -10 6 0 10 5 10 10 0 6 -4 10 -10 10 -5 0
-10 -4 -10 -10z"/>
<path d="M1725 410 c-3 -5 -1 -10 4 -10 6 0 11 5 11 10 0 6 -2 10 -4 10 -3 0
-8 -4 -11 -10z"/>
<path d="M2760 230 c0 -5 5 -10 11 -10 5 0 7 5 4 10 -3 6 -8 10 -11 10 -2 0
-4 -4 -4 -10z"/>
<path d="M2900 210 c0 -5 5 -10 11 -10 5 0 7 5 4 10 -3 6 -8 10 -11 10 -2 0
-4 -4 -4 -10z"/>
</g>
</svg>
